<svg width="75" height="50" viewBox="0 0 75 50" fill="none" xmlns="http://www.w3.org/2000/svg">
<path d="M7.87575 41.6C7.55575 41.6 7.27042 41.5307 7.01975 41.392C6.77442 41.248 6.58242 41.0533 6.44375 40.808C6.30508 40.5573 6.23575 40.272 6.23575 39.952C6.23575 39.6373 6.30508 39.3547 6.44375 39.104C6.58242 38.8533 6.77442 38.6587 7.01975 38.52C7.27042 38.376 7.55575 38.304 7.87575 38.304C8.19042 38.304 8.47042 38.376 8.71575 38.52C8.96642 38.6587 9.16108 38.8533 9.29975 39.104C9.43842 39.3547 9.50775 39.6373 9.50775 39.952C9.50775 40.272 9.43842 40.5573 9.29975 40.808C9.16108 41.0533 8.96642 41.248 8.71575 41.392C8.47042 41.5307 8.19042 41.6 7.87575 41.6ZM7.87575 41.272C8.25975 41.272 8.56908 41.1493 8.80375 40.904C9.03842 40.6587 9.15575 40.3413 9.15575 39.952C9.15575 39.568 9.03842 39.2533 8.80375 39.008C8.56908 38.7627 8.25975 38.64 7.87575 38.64C7.48642 38.64 7.17442 38.7627 6.93975 39.008C6.70508 39.2533 6.58775 39.568 6.58775 39.952C6.58775 40.3413 6.70508 40.6587 6.93975 40.904C7.17442 41.1493 7.48642 41.272 7.87575 41.272ZM7.21175 40.792V39.08H8.01175C8.18775 39.08 8.32908 39.128 8.43575 39.224C8.54242 39.32 8.59575 39.4507 8.59575 39.616C8.59575 39.8773 8.47042 40.0453 8.21975 40.12L8.66775 40.792H8.17175L7.77975 40.144H7.63575V40.792H7.21175ZM7.63575 39.824H7.95575C8.01442 39.824 8.06508 39.8107 8.10775 39.784C8.15042 39.752 8.17175 39.7013 8.17175 39.632C8.17175 39.568 8.15042 39.5227 8.10775 39.496C8.06508 39.4693 8.01442 39.456 7.95575 39.456H7.63575V39.824ZM12.4743 44V38.4H14.5863C15.1676 38.4 15.6076 38.536 15.9062 38.808C16.2049 39.08 16.3543 39.4213 16.3543 39.832C16.3543 40.1893 16.2583 40.4747 16.0663 40.688C15.8743 40.896 15.6423 41.0373 15.3703 41.112C15.5836 41.1547 15.7729 41.24 15.9383 41.368C16.1089 41.496 16.2423 41.656 16.3383 41.848C16.4343 42.04 16.4823 42.248 16.4823 42.472C16.4823 42.76 16.4103 43.0213 16.2663 43.256C16.1276 43.4853 15.9223 43.6667 15.6503 43.8C15.3783 43.9333 15.0449 44 14.6503 44H12.4743ZM13.3223 40.8H14.4823C14.8076 40.8 15.0556 40.7253 15.2263 40.576C15.3969 40.4213 15.4823 40.2107 15.4823 39.944C15.4823 39.6827 15.3969 39.4747 15.2263 39.32C15.0609 39.1653 14.8076 39.088 14.4663 39.088H13.3223V40.8ZM13.3223 43.304H14.5383C14.8796 43.304 15.1436 43.224 15.3303 43.064C15.5223 42.904 15.6183 42.68 15.6183 42.392C15.6183 42.104 15.5196 41.8773 15.3223 41.712C15.1249 41.5413 14.8583 41.456 14.5223 41.456H13.3223V43.304ZM18.7238 44.096C18.3878 44.096 18.1104 44.04 17.8918 43.928C17.6731 43.816 17.5104 43.6693 17.4038 43.488C17.2971 43.3013 17.2438 43.0987 17.2438 42.88C17.2438 42.496 17.3931 42.192 17.6918 41.968C17.9904 41.744 18.4171 41.632 18.9718 41.632H20.0118V41.56C20.0118 41.2507 19.9264 41.0187 19.7558 40.864C19.5904 40.7093 19.3744 40.632 19.1078 40.632C18.8731 40.632 18.6678 40.6907 18.4918 40.808C18.3211 40.92 18.2171 41.088 18.1798 41.312H17.3318C17.3584 41.024 17.4544 40.7787 17.6198 40.576C17.7904 40.368 18.0038 40.2107 18.2598 40.104C18.5211 39.992 18.8064 39.936 19.1158 39.936C19.6704 39.936 20.0998 40.0827 20.4038 40.376C20.7078 40.664 20.8598 41.0587 20.8598 41.56V44H20.1238L20.0518 43.32C19.9398 43.5387 19.7771 43.7227 19.5638 43.872C19.3504 44.0213 19.0704 44.096 18.7238 44.096ZM18.8918 43.408C19.1211 43.408 19.3131 43.3547 19.4678 43.248C19.6278 43.136 19.7504 42.9893 19.8358 42.808C19.9264 42.6267 19.9824 42.4267 20.0038 42.208H19.0598C18.7238 42.208 18.4838 42.2667 18.3398 42.384C18.2011 42.5013 18.1318 42.648 18.1318 42.824C18.1318 43.0053 18.1984 43.1493 18.3318 43.256C18.4704 43.3573 18.6571 43.408 18.8918 43.408ZM23.4344 44C23.045 44 22.7357 43.9067 22.5064 43.72C22.277 43.528 22.1624 43.1893 22.1624 42.704V40.744H21.4824V40.032H22.1624L22.2664 39.024H23.0104V40.032H24.1304V40.744H23.0104V42.704C23.0104 42.9227 23.0557 43.0747 23.1464 43.16C23.2424 43.24 23.405 43.28 23.6344 43.28H24.0904V44H23.4344ZM26.3488 44.096C26.0128 44.096 25.7354 44.04 25.5168 43.928C25.2981 43.816 25.1354 43.6693 25.0288 43.488C24.9221 43.3013 24.8688 43.0987 24.8688 42.88C24.8688 42.496 25.0181 42.192 25.3168 41.968C25.6154 41.744 26.0421 41.632 26.5968 41.632H27.6368V41.56C27.6368 41.2507 27.5514 41.0187 27.3808 40.864C27.2154 40.7093 26.9994 40.632 26.7328 40.632C26.4981 40.632 26.2928 40.6907 26.1168 40.808C25.9461 40.92 25.8421 41.088 25.8048 41.312H24.9568C24.9834 41.024 25.0794 40.7787 25.2448 40.576C25.4154 40.368 25.6288 40.2107 25.8848 40.104C26.1461 39.992 26.4314 39.936 26.7408 39.936C27.2954 39.936 27.7248 40.0827 28.0288 40.376C28.3328 40.664 28.4848 41.0587 28.4848 41.56V44H27.7488L27.6768 43.32C27.5648 43.5387 27.4021 43.7227 27.1888 43.872C26.9754 44.0213 26.6954 44.096 26.3488 44.096ZM26.5168 43.408C26.7461 43.408 26.9381 43.3547 27.0928 43.248C27.2528 43.136 27.3754 42.9893 27.4608 42.808C27.5514 42.6267 27.6074 42.4267 27.6288 42.208H26.6848C26.3488 42.208 26.1088 42.2667 25.9648 42.384C25.8261 42.5013 25.7568 42.648 25.7568 42.824C25.7568 43.0053 25.8234 43.1493 25.9568 43.256C26.0954 43.3573 26.2821 43.408 26.5168 43.408ZM31.0594 44C30.67 44 30.3607 43.9067 30.1314 43.72C29.902 43.528 29.7874 43.1893 29.7874 42.704V40.744H29.1074V40.032H29.7874L29.8914 39.024H30.6354V40.032H31.7554V40.744H30.6354V42.704C30.6354 42.9227 30.6807 43.0747 30.7714 43.16C30.8674 43.24 31.03 43.28 31.2594 43.28H31.7154V44H31.0594ZM33.9738 44.096C33.6378 44.096 33.3604 44.04 33.1418 43.928C32.9231 43.816 32.7604 43.6693 32.6538 43.488C32.5471 43.3013 32.4938 43.0987 32.4938 42.88C32.4938 42.496 32.6431 42.192 32.9418 41.968C33.2404 41.744 33.6671 41.632 34.2218 41.632H35.2618V41.56C35.2618 41.2507 35.1764 41.0187 35.0058 40.864C34.8404 40.7093 34.6244 40.632 34.3578 40.632C34.1231 40.632 33.9178 40.6907 33.7418 40.808C33.5711 40.92 33.4671 41.088 33.4298 41.312H32.5818C32.6084 41.024 32.7044 40.7787 32.8698 40.576C33.0404 40.368 33.2538 40.2107 33.5098 40.104C33.7711 39.992 34.0564 39.936 34.3658 39.936C34.9204 39.936 35.3498 40.0827 35.6538 40.376C35.9578 40.664 36.1098 41.0587 36.1098 41.56V44H35.3738L35.3018 43.32C35.1898 43.5387 35.0271 43.7227 34.8138 43.872C34.6004 44.0213 34.3204 44.096 33.9738 44.096ZM34.1418 43.408C34.3711 43.408 34.5631 43.3547 34.7178 43.248C34.8778 43.136 35.0004 42.9893 35.0858 42.808C35.1764 42.6267 35.2324 42.4267 35.2538 42.208H34.3098C33.9738 42.208 33.7338 42.2667 33.5898 42.384C33.4511 42.5013 33.3818 42.648 33.3818 42.824C33.3818 43.0053 33.4484 43.1493 33.5818 43.256C33.7204 43.3573 33.9071 43.408 34.1418 43.408ZM39.3305 44.096C39.0212 44.096 38.7465 44.0347 38.5065 43.912C38.2718 43.7893 38.0852 43.616 37.9465 43.392L37.8585 44H37.0985V38.24H37.9465V40.648C38.0745 40.4613 38.2505 40.296 38.4745 40.152C38.6985 40.008 38.9865 39.936 39.3385 39.936C39.7225 39.936 40.0612 40.0267 40.3545 40.208C40.6478 40.3893 40.8772 40.6373 41.0425 40.952C41.2132 41.2667 41.2985 41.624 41.2985 42.024C41.2985 42.424 41.2132 42.7813 41.0425 43.096C40.8772 43.4053 40.6478 43.6507 40.3545 43.832C40.0612 44.008 39.7198 44.096 39.3305 44.096ZM39.1865 43.36C39.5492 43.36 39.8478 43.2373 40.0825 42.992C40.3172 42.7413 40.4345 42.416 40.4345 42.016C40.4345 41.7547 40.3812 41.5227 40.2745 41.32C40.1678 41.1173 40.0212 40.96 39.8345 40.848C39.6478 40.7307 39.4318 40.672 39.1865 40.672C38.8238 40.672 38.5252 40.7973 38.2905 41.048C38.0612 41.2987 37.9465 41.6213 37.9465 42.016C37.9465 42.416 38.0612 42.7413 38.2905 42.992C38.5252 43.2373 38.8238 43.36 39.1865 43.36ZM42.6957 39.28C42.5357 39.28 42.4024 39.232 42.2957 39.136C42.1944 39.0347 42.1437 38.9093 42.1437 38.76C42.1437 38.6107 42.1944 38.488 42.2957 38.392C42.4024 38.2907 42.5357 38.24 42.6957 38.24C42.8557 38.24 42.9864 38.2907 43.0877 38.392C43.1944 38.488 43.2477 38.6107 43.2477 38.76C43.2477 38.9093 43.1944 39.0347 43.0877 39.136C42.9864 39.232 42.8557 39.28 42.6957 39.28ZM42.2717 44V40.032H43.1197V44H42.2717ZM45.9031 44C45.5138 44 45.2045 43.9067 44.9751 43.72C44.7458 43.528 44.6311 43.1893 44.6311 42.704V40.744H43.9511V40.032H44.6311L44.7351 39.024H45.4791V40.032H46.5991V40.744H45.4791V42.704C45.4791 42.9227 45.5245 43.0747 45.6151 43.16C45.7111 43.24 45.8738 43.28 46.1031 43.28H46.5591V44H45.9031ZM49.4091 44V43.392C49.7718 43.104 50.1185 42.8133 50.4491 42.52C50.7798 42.2267 51.0731 41.9387 51.3291 41.656C51.5905 41.368 51.7958 41.088 51.9451 40.816C52.0945 40.5387 52.1691 40.272 52.1691 40.016C52.1691 39.8453 52.1398 39.6853 52.0811 39.536C52.0225 39.3813 51.9265 39.2587 51.7931 39.168C51.6598 39.072 51.4811 39.024 51.2571 39.024C50.9211 39.024 50.6678 39.1307 50.4971 39.344C50.3318 39.5573 50.2518 39.8133 50.2571 40.112H49.4331C49.4385 39.7173 49.5211 39.3867 49.6811 39.12C49.8465 38.8533 50.0651 38.6507 50.3371 38.512C50.6145 38.3733 50.9265 38.304 51.2731 38.304C51.8011 38.304 52.2225 38.4533 52.5371 38.752C52.8571 39.0453 53.0171 39.456 53.0171 39.984C53.0171 40.2987 52.9398 40.6107 52.7851 40.92C52.6358 41.2293 52.4385 41.528 52.1931 41.816C51.9531 42.0987 51.6945 42.3653 51.4171 42.616C51.1398 42.8667 50.8758 43.0933 50.6251 43.296H53.1851V44H49.4091ZM56.2768 44.096C55.7701 44.096 55.3328 43.976 54.9648 43.736C54.6021 43.4907 54.3221 43.152 54.1248 42.72C53.9328 42.2827 53.8368 41.776 53.8368 41.2C53.8368 40.624 53.9328 40.12 54.1248 39.688C54.3221 39.2507 54.6021 38.912 54.9648 38.672C55.3328 38.4267 55.7701 38.304 56.2768 38.304C56.7834 38.304 57.2181 38.4267 57.5807 38.672C57.9434 38.912 58.2208 39.2507 58.4128 39.688C58.6101 40.12 58.7088 40.624 58.7088 41.2C58.7088 41.776 58.6101 42.2827 58.4128 42.72C58.2208 43.152 57.9434 43.4907 57.5807 43.736C57.2181 43.976 56.7834 44.096 56.2768 44.096ZM56.2768 43.336C56.5808 43.336 56.8501 43.2507 57.0848 43.08C57.3248 42.9093 57.5114 42.664 57.6448 42.344C57.7781 42.024 57.8448 41.6427 57.8448 41.2C57.8448 40.7573 57.7781 40.376 57.6448 40.056C57.5114 39.736 57.3248 39.4907 57.0848 39.32C56.8501 39.1493 56.5808 39.064 56.2768 39.064C55.9674 39.064 55.6954 39.1493 55.4608 39.32C55.2261 39.4907 55.0421 39.736 54.9088 40.056C54.7754 40.376 54.7088 40.7573 54.7088 41.2C54.7088 41.6427 54.7754 42.024 54.9088 42.344C55.0421 42.664 55.2261 42.9093 55.4608 43.08C55.6954 43.2507 55.9674 43.336 56.2768 43.336ZM59.4794 44V43.392C59.8421 43.104 60.1888 42.8133 60.5194 42.52C60.8501 42.2267 61.1434 41.9387 61.3994 41.656C61.6608 41.368 61.8661 41.088 62.0154 40.816C62.1648 40.5387 62.2394 40.272 62.2394 40.016C62.2394 39.8453 62.2101 39.6853 62.1514 39.536C62.0928 39.3813 61.9968 39.2587 61.8634 39.168C61.7301 39.072 61.5514 39.024 61.3274 39.024C60.9914 39.024 60.7381 39.1307 60.5674 39.344C60.4021 39.5573 60.3221 39.8133 60.3274 40.112H59.5034C59.5088 39.7173 59.5914 39.3867 59.7514 39.12C59.9168 38.8533 60.1354 38.6507 60.4074 38.512C60.6848 38.3733 60.9968 38.304 61.3434 38.304C61.8714 38.304 62.2928 38.4533 62.6074 38.752C62.9274 39.0453 63.0874 39.456 63.0874 39.984C63.0874 40.2987 63.0101 40.6107 62.8554 40.92C62.7061 41.2293 62.5088 41.528 62.2634 41.816C62.0234 42.0987 61.7648 42.3653 61.4874 42.616C61.2101 42.8667 60.9461 43.0933 60.6954 43.296H63.2554V44H59.4794ZM66.3471 44.096C65.8404 44.096 65.4031 43.976 65.0351 43.736C64.6724 43.4907 64.3924 43.152 64.1951 42.72C64.0031 42.2827 63.9071 41.776 63.9071 41.2C63.9071 40.624 64.0031 40.12 64.1951 39.688C64.3924 39.2507 64.6724 38.912 65.0351 38.672C65.4031 38.4267 65.8404 38.304 66.3471 38.304C66.8537 38.304 67.2884 38.4267 67.6511 38.672C68.0137 38.912 68.2911 39.2507 68.4831 39.688C68.6804 40.12 68.7791 40.624 68.7791 41.2C68.7791 41.776 68.6804 42.2827 68.4831 42.72C68.2911 43.152 68.0137 43.4907 67.6511 43.736C67.2884 43.976 66.8537 44.096 66.3471 44.096ZM66.3471 43.336C66.6511 43.336 66.9204 43.2507 67.1551 43.08C67.3951 42.9093 67.5817 42.664 67.7151 42.344C67.8484 42.024 67.9151 41.6427 67.9151 41.2C67.9151 40.7573 67.8484 40.376 67.7151 40.056C67.5817 39.736 67.3951 39.4907 67.1551 39.32C66.9204 39.1493 66.6511 39.064 66.3471 39.064C66.0377 39.064 65.7657 39.1493 65.5311 39.32C65.2964 39.4907 65.1124 39.736 64.9791 40.056C64.8457 40.376 64.7791 40.7573 64.7791 41.2C64.7791 41.6427 64.8457 42.024 64.9791 42.344C65.1124 42.664 65.2964 42.9093 65.5311 43.08C65.7657 43.2507 66.0377 43.336 66.3471 43.336Z" fill="#FFE9D5"/>
<path d="M33.8562 20.2838C26.3288 22.281 14.1712 20.2399 14.0632 11.3449C13.9552 2.44983 26.9304 7.74852 26.9304 7.74852L33.8562 20.2838Z" fill="#FFC250"/>
<path d="M17.723 6.35426C22.9765 5.58608 26.9664 11.5265 31.3808 17.7232C35.7952 23.92 47.2901 26.3762 54.6349 21.165C61.9797 15.9539 65.0882 6.82713 56.0701 1.38317C47.0519 -4.06079 41.4224 8.29872 33.6587 8.63845C25.8952 8.97819 25.8385 4.05367 17.723 6.35426Z" fill="#FFD064"/>
<ellipse cx="55.3092" cy="11.6219" rx="2.3056" ry="1.96745" fill="#FFE19D"/>
<ellipse cx="50.8902" cy="13.0974" rx="1.7292" ry="1.47559" fill="#FFE19D"/>
<ellipse cx="53.9643" cy="15.0648" rx="1.34493" ry="1.14768" fill="#FFE19D"/>
</svg>
